<?xml version="1.0" encoding="UTF-8" standalone="no"?>
<!-- Created with Inkscape (http://www.inkscape.org/) -->

<svg
   xmlns:dc="http://purl.org/dc/elements/1.1/"
   xmlns:cc="http://creativecommons.org/ns#"
   xmlns:rdf="http://www.w3.org/1999/02/22-rdf-syntax-ns#"
   xmlns:svg="http://www.w3.org/2000/svg"
   xmlns="http://www.w3.org/2000/svg"
   xmlns:xlink="http://www.w3.org/1999/xlink"
   xmlns:sodipodi="http://sodipodi.sourceforge.net/DTD/sodipodi-0.dtd"
   xmlns:inkscape="http://www.inkscape.org/namespaces/inkscape"
   id="svg3295"
   sodipodi:docname="bearwithhoney.svg"
   viewBox="0 0 860.36365 791.72784"
   version="1.1"
   inkscape:version="0.91 r13725"
   width="860.36365"
   height="791.72784">
  <defs
     id="defs3297">
    <linearGradient
       id="linearGradient4162"
       inkscape:collect="always">
      <stop
         id="stop4164"
         style="stop-color:#ffffff"
         offset="0" />
      <stop
         id="stop4166"
         style="stop-color:#ffffff;stop-opacity:0"
         offset="1" />
    </linearGradient>
    <filter
       id="filter4284"
       inkscape:collect="always">
      <feGaussianBlur
         id="feGaussianBlur4286"
         stdDeviation="7.6509614"
         inkscape:collect="always" />
    </filter>
    <linearGradient
       id="linearGradient4288"
       y2="87"
       gradientUnits="userSpaceOnUse"
       x2="262"
       gradientTransform="matrix(0.5,0,0,0.5,121.72,154.454)"
       y1="154"
       x1="430"
       inkscape:collect="always">
      <stop
         id="stop4180"
         style="stop-color:#b88100"
         offset="0" />
      <stop
         id="stop4182"
         style="stop-color:#ffc022"
         offset="1" />
    </linearGradient>
    <linearGradient
       id="linearGradient4290"
       y2="-13"
       xlink:href="#linearGradient4162"
       gradientUnits="userSpaceOnUse"
       x2="377"
       y1="-15"
       x1="367"
       inkscape:collect="always"
       gradientTransform="matrix(1.0416123,0,0,1.2356745,-211.43494,-313.43402)" />
    <linearGradient
       id="linearGradient4296"
       y2="97"
       gradientUnits="userSpaceOnUse"
       x2="267"
       gradientTransform="matrix(0.5,0,0,0.5,121.72,154.454)"
       y1="209"
       x1="366"
       inkscape:collect="always">
      <stop
         id="stop4190"
         style="stop-color:#804d00"
         offset="0" />
      <stop
         id="stop4192"
         style="stop-color:#ffc022"
         offset="1" />
    </linearGradient>
    <linearGradient
       id="linearGradient4298"
       y2="100"
       gradientUnits="userSpaceOnUse"
       x2="552"
       gradientTransform="matrix(0.5,0,0,0.5,121.72,154.454)"
       y1="166"
       x1="432"
       inkscape:collect="always">
      <stop
         id="stop4208"
         style="stop-color:#804d00"
         offset="0" />
      <stop
         id="stop4210"
         style="stop-color:#ffc022"
         offset="1" />
    </linearGradient>
    <filter
       id="filter4362"
       height="1.271"
       width="1.2563"
       y="-0.13551"
       x="-0.12816"
       inkscape:collect="always">
      <feGaussianBlur
         id="feGaussianBlur4364"
         stdDeviation="15.95841"
         inkscape:collect="always" />
    </filter>
    <linearGradient
       inkscape:collect="always"
       xlink:href="#linearGradient4162"
       id="linearGradient9211"
       gradientUnits="userSpaceOnUse"
       x1="367"
       y1="-15"
       x2="377"
       y2="-13"
       gradientTransform="matrix(0.5,0,0,0.5,118.72,152.954)" />
    <linearGradient
       inkscape:collect="always"
       xlink:href="#linearGradient4162"
       id="linearGradient9213"
       gradientUnits="userSpaceOnUse"
       x1="367"
       y1="-15"
       x2="377"
       y2="-13"
       gradientTransform="matrix(0.5,0,0,0.5,159.22,153.954)" />
    <linearGradient
       inkscape:collect="always"
       x1="30.028"
       y1="482.67001"
       gradientTransform="matrix(0.34232574,0,0,0.34183018,391.74234,72.004108)"
       x2="379.51999"
       gradientUnits="userSpaceOnUse"
       y2="493.51001"
       id="linearGradient3102">
      <stop
         offset="0"
         style="stop-color:#e6e6e6"
         id="stop3823" />
      <stop
         offset="1"
         style="stop-color:#e6e6e6;stop-opacity:0"
         id="stop3825" />
    </linearGradient>
    <filter
       style="color-interpolation-filters:sRGB"
       inkscape:collect="always"
       x="-0.11969"
       y="-0.11278"
       width="1.2394"
       height="1.2256"
       id="filter3892">
      <feGaussianBlur
         inkscape:collect="always"
         stdDeviation="7.1581857"
         id="feGaussianBlur3894" />
    </filter>
    <filter
       height="1.0122002"
       y="-0.0061000907"
       width="1.0050714"
       x="-0.0025357157"
       id="filter140987"
       style="color-interpolation-filters:sRGB"
       inkscape:collect="always">
      <feGaussianBlur
         id="feGaussianBlur140989"
         stdDeviation="0.10555272"
         inkscape:collect="always" />
    </filter>
    <filter
       height="1.012808"
       y="-0.0064039971"
       width="1.0050075"
       x="-0.0025037364"
       id="filter141008"
       style="color-interpolation-filters:sRGB"
       inkscape:collect="always">
      <feGaussianBlur
         id="feGaussianBlur141010"
         stdDeviation="0.13393898"
         inkscape:collect="always" />
    </filter>
  </defs>
  <sodipodi:namedview
     id="base"
     bordercolor="#666666"
     inkscape:pageshadow="2"
     inkscape:window-y="1"
     pagecolor="#ffffff"
     inkscape:window-height="1035"
     inkscape:window-maximized="1"
     inkscape:zoom="0.77"
     inkscape:window-x="4"
     showgrid="false"
     borderopacity="1.0"
     inkscape:current-layer="layer1"
     inkscape:cx="480.36814"
     inkscape:cy="396.89149"
     inkscape:window-width="1916"
     inkscape:pageopacity="0.0"
     inkscape:document-units="px"
     fit-margin-top="0"
     fit-margin-left="0"
     fit-margin-right="0"
     fit-margin-bottom="0" />
  <g
     id="layer1"
     inkscape:label="Layer 1"
     inkscape:groupmode="layer"
     transform="translate(117.40517,145.85486)">
    <g
       id="g9483"
       transform="matrix(2,0,0,2,-286.80262,-164.29477)">
      <g
         transform="matrix(1,0,0,-0.14629,-16.518519,389.28815)"
         style="opacity:0.56098005;fill:#0e232e;filter:url(#filter4362)"
         id="g4326">
        <path
           d="m 302.38221,-11.139114 c -5.46983,0.26055 -11.10604,4.4654521 -16.30751,12.9567125 -15.13098,24.7016875 -20.93369,76.4180575 -12.95272,115.5056115 0.18455,0.90386 0.39713,1.77223 0.59301,2.64671 -6.46428,23.6429 -9.16598,51.57656 -6.58553,78.29394 1.80923,18.73073 5.97809,34.37257 11.70429,46.01971 -20.49724,23.44546 -34.58153,72.19859 -34.58153,128.5407 0,32.02394 4.54119,61.58294 12.23462,85.44351 -0.3456,-0.20402 -0.7091,-0.29435 -1.07675,-0.23688 -6.81703,1.06308 -43.31856,45.61015 -30.33687,83.98225 1.39684,4.1287 2.63409,7.77074 3.83897,11.29774 -1.50431,-3.87285 -3.07223,-7.85037 -4.74403,-11.96922 -8.98431,-1.63222 -16.98466,2.48974 -22.48774,13.07528 -13.38318,25.74404 -6.96535,79.84116 14.32599,120.79701 21.29125,40.95838 53.90725,32.06439 67.29043,6.32035 6.1293,-11.79099 47.66111,-70.88902 61.28199,-106.61668 14.77842,35.95267 54.0261,91.90038 59.97163,103.33768 13.38318,25.74404 45.99918,34.63804 67.29043,-6.32034 21.29124,-40.95838 27.70917,-95.01252 14.32599,-120.75909 -5.50268,-10.58557 -13.50303,-14.74689 -22.48774,-13.11472 -1.69347,4.17219 -3.28507,8.20836 -4.80646,12.12723 1.21658,-3.56063 2.48848,-7.24009 3.9013,-11.41607 12.98169,-38.36956 -23.51944,-82.95835 -30.33687,-84.02017 -1.47075,-0.2293 -2.77342,1.6796 -3.83898,5.53031 -1.60099,5.7859 -4.20551,10.40683 -7.475,14.18134 11.75422,-26.07775 19.07003,-62.70796 19.07003,-103.29723 0,-59.91184 -15.93298,-111.2457 -38.56054,-132.68685 5.16701,-11.36752 8.91909,-26.20416 10.61167,-43.72922 1.35909,-14.07111 1.24213,-28.48454 -0.10925,-42.4247 2.17147,-5.35788 4.05171,-11.75382 5.55552,-19.11905 C 425.67133,94.119194 419.86882,42.444034 404.73784,17.741588 392.84978,-1.6664298 378.76548,1.368601 369.39126,22.521287 360.82073,12.791744 351.04432,7.2338835 340.64639,7.2338835 c -5.87342,0 -11.57146,1.7719978 -16.9477,5.0562775 -5.51317,-15.6072128 -13.23836,-23.809507 -21.31721,-23.424724 z"
           inkscape:connector-curvature="0"
           style="opacity:0.528;fill:#0e232e;stroke:#897345;stroke-width:2.6631875;stroke-linecap:round"
           sodipodi:nodetypes="ssscscscssccssscsssccssscscscsscscs"
           id="path4328" />
        <ellipse
           ry="22.842754"
           rx="6.1234965"
           cy="167.38734"
           cx="365.73712"
           style="opacity:0.528;fill:#0e232e;stroke:#897345;stroke-width:2.6631825;stroke-linecap:round"
           id="path4330" />
        <ellipse
           ry="22.842754"
           rx="6.1234965"
           cy="165.74405"
           cx="327.70691"
           style="opacity:0.528;fill:#0e232e;stroke:#897345;stroke-width:2.6631825;stroke-linecap:round"
           id="path4332" />
        <ellipse
           ry="55.649406"
           rx="34.979626"
           cy="-161.55812"
           cx="-859.17834"
           transform="matrix(-0.44425415,-0.8959008,-0.44425415,0.8959008,0,0)"
           style="opacity:0.528;fill:#0e232e;stroke:#897345;stroke-width:2.98497987;stroke-linecap:round"
           id="path4334" />
        <path
           d="m 296.18,11.811838 c -5.90208,-0.224499 -12.2476,16.825776 -14.7934,40.885063 -2.81017,26.547988 0.068,51.541169 6.42941,55.856699 6.36141,4.31478 13.79367,-13.704785 16.60414,-40.253025 0.87049,-8.22353 1.18561,-16.301693 1.0299,-23.661864 3.85925,-2.943512 6.53129,-8.856071 6.56985,-15.563729 0.0543,-9.455998 -5.14134,-16.936256 -11.61041,-16.709482 -0.71014,0.0249 -1.39924,0.154861 -2.07549,0.355532 -0.11558,-0.09417 -0.22533,-0.196487 -0.34332,-0.276528 -0.59638,-0.404502 -1.19969,-0.608826 -1.81023,-0.632034 z"
           inkscape:connector-curvature="0"
           style="opacity:0.528;fill:#0e232e;stroke:#897345;stroke-width:2.6631875;stroke-linecap:round"
           sodipodi:nodetypes="sssscsscss"
           id="path4336" />
        <path
           d="m 390.89097,31.956049 c 5.22144,-2.190835 12.86683,8.03215 17.95843,24.658204 5.61824,18.345946 5.99607,37.515054 0.84676,42.839315 -5.14933,5.324012 -13.87556,-5.230467 -19.4935,-23.576413 -1.74032,-5.683004 -2.96977,-11.4507 -3.69626,-16.858137 -3.77735,-0.815324 -6.84799,-4.198227 -7.67046,-9.064389 -1.15944,-6.859852 2.58136,-14.085779 8.36,-16.143179 0.63434,-0.225826 1.26231,-0.367996 1.88722,-0.454382 0.0917,-0.108205 0.17726,-0.220328 0.27277,-0.319077 0.48275,-0.499105 0.99515,-0.854966 1.53527,-1.081588 z"
           inkscape:connector-curvature="0"
           style="opacity:0.528;fill:#0e232e;stroke:#897345;stroke-width:2.6631875;stroke-linecap:round"
           sodipodi:nodetypes="sssscsscss"
           id="path4338" />
        <ellipse
           ry="55.649406"
           rx="34.979626"
           cy="614.42615"
           cx="-86.837135"
           transform="matrix(0.44425415,-0.8959008,0.44425415,0.8959008,0,0)"
           style="opacity:0.528;fill:#0e232e;stroke:#897345;stroke-width:2.98497987;stroke-linecap:round"
           id="path4340" />
        <ellipse
           ry="43.238106"
           rx="28.039114"
           cy="212.23389"
           cx="346.40256"
           style="opacity:0.528;fill:#0e232e;stroke:#897345;stroke-width:2.66317677;stroke-linecap:round"
           id="path4342" />
        <ellipse
           ry="12.891573"
           rx="19.579678"
           cy="-347.04099"
           cx="-196.73022"
           transform="matrix(0,-1,-1,0,0,0)"
           style="opacity:0.528;fill:#0e232e;stroke:#897345;stroke-width:2.66317225;stroke-linecap:round"
           id="path4344" />
        <path
           d="m 335.19098,222.67076 c 0,0 4.21779,16.80808 14.22711,15.3137 5.62543,-0.83997 9.58116,-17.35542 9.58116,-17.35542"
           inkscape:connector-curvature="0"
           style="opacity:0.528;fill:#0e232e;stroke:#897345;stroke-width:2.6631875"
           sodipodi:nodetypes="csc"
           id="path4346" />
        <path
           d="m 334.17226,224.2281 1.79584,-5.21277"
           inkscape:connector-curvature="0"
           style="opacity:0.528;fill:#0e232e;stroke:#897345;stroke-width:2.6631875"
           sodipodi:nodetypes="cc"
           id="path4348" />
        <path
           d="m 357.88246,215.88777 0.71832,6.25537 2.155,-1.04255"
           inkscape:connector-curvature="0"
           style="opacity:0.528;fill:#0e232e;stroke:#897345;stroke-width:2.6631875"
           sodipodi:nodetypes="ccc"
           id="path4350" />
        <ellipse
           ry="9.4805212"
           rx="2.2471757"
           cy="158.52176"
           cx="326.49191"
           style="opacity:0.528;fill:#0e232e;stroke:#897345;stroke-width:2.6631875;stroke-linecap:round"
           id="path4352" />
        <ellipse
           ry="9.4805212"
           rx="2.2471757"
           cy="161.04991"
           cx="366.94107"
           style="opacity:0.528;fill:#0e232e;stroke:#897345;stroke-width:2.6631875;stroke-linecap:round"
           id="path4354" />
        <ellipse
           ry="9.3073807"
           rx="11.835515"
           cy="-351.87781"
           cx="230.24338"
           transform="matrix(-0.02130614,0.999773,-0.99344588,0.11430349,0,0)"
           inkscape:transform-center-y="37.943593"
           inkscape:transform-center-x="5.4643546"
           style="opacity:0.528;fill:#0e232e;stroke:#897345;stroke-width:2.67562652;stroke-linecap:round"
           id="path4356" />
        <path
           d="m 346.21712,277.96622 c 0,0 -50.32476,31.61691 -49.43787,50.56278 0.74969,16.01551 25.03753,17.57714 29.96234,27.80953 4.29441,8.92281 8.98871,30.33767 8.98871,30.33767 12.70203,-8.43666 10.7405,22.73985 16.47929,51.82685 3.91428,19.83982 2.43783,17.51039 0,20.22511 -2.48039,2.76199 -3.32932,-16.07644 -4.99373,-21.48918 -1.5096,-4.9094 -6.61948,-5.72346 -4.49435,-8.84849 4.07358,-5.99017 6.93399,18.49586 7.49059,30.33767 0.31096,6.61563 -0.3117,15.24771 -2.49687,18.96104 -2.07758,3.5308 -9.33097,6.35271 -7.49058,-1.26407 3.07304,-12.71856 -0.96601,-16.74386 -3.49561,-25.28139 l -4.49435,-15.16883 c -4.64586,-15.68003 7.04075,20.21601 7.98996,44.24243 -0.60928,27.88032 -19.42659,-7.25222 -26.46674,-2.52814 -15.58441,11.29294 -12.06384,-38.02827 -14.4818,-40.45022 -2.63589,-2.63989 2.83464,26.54293 0,26.54546 -26.84626,0.0296 -51.75795,-25.95135 -54.43159,-83.42859 -1.66571,-96.66592 36.45419,-137.78358 36.45419,-137.78358 20.73993,55.07551 42.89309,42.17695 64.91841,35.39395 z"
           inkscape:connector-curvature="0"
           style="opacity:0.528;fill:#0e232e;stroke:#897345;stroke-width:2.6631875"
           sodipodi:nodetypes="csscsssssssssccssccc"
           id="path4358" />
        <path
           d="m 398.65122,303.24761 c -2.02536,10.7006 -4.63797,21.04575 -8.48933,27.80953 -5.89519,10.35323 -14.41588,15.9255 -21.47301,12.64069 -14.66657,-6.82698 -24.96862,25.28139 -24.96862,25.28139 0,0 -4.0581,29.24046 0,34.12988 3.0985,3.7333 7.98995,-16.4329 7.98995,-16.4329 0,0 -12.99466,19.22573 -1.99749,41.71429 4.0639,8.30999 11.98494,-34.12988 11.98494,-34.12988 0,0 -8.04439,29.56912 -6.49184,40.45023 12.97869,48.21161 52.5919,-48.42398 35.45544,-16.43291 0,0 22.20509,2.03938 32.95858,-3.79221 19.57939,-10.61767 16.97866,-60.67533 16.97866,-60.67533 0,0 -1.89861,-31.67505 -6.49184,-46.77057 -40.36327,-132.65904 -80.39896,-31.60174 -80.39896,-31.60174 0,0 48.35523,9.78491 44.94352,27.80953 z"
           inkscape:connector-curvature="0"
           style="opacity:0.528;fill:#0e232e;stroke:#897345;stroke-width:2.6631875"
           sodipodi:nodetypes="ssscscscccscscs"
           id="path4360" />
      </g>
      <g
         transform="translate(-17,92)"
         style="fill:#0e232e;filter:url(#filter4284)"
         id="g4248">
        <path
           d="m 302.33,-10.405 c -5.4767,0.10306 -11.12,1.7663 -16.328,5.125 -15.15,9.7707 -20.96,30.227 -12.969,45.688 0.18478,0.35752 0.39763,0.701 0.59375,1.0469 -6.4724,9.3519 -9.1775,20.401 -6.5938,30.969 1.8115,7.4089 5.9856,13.596 11.719,18.203 -20.523,9.2738 -34.625,28.558 -34.625,50.844 0,12.667 4.5469,24.359 12.25,33.797 -0.34603,-0.0807 -0.70999,-0.11643 -1.0781,-0.0937 -6.8256,0.4205 -43.373,18.041 -30.375,33.219 1.3986,1.6331 2.6374,3.0737 3.8438,4.4688 -1.5062,-1.5319 -3.0761,-3.1052 -4.75,-4.7344 -8.9956,-0.64562 -17.006,0.98481 -22.516,5.1719 -13.4,10.183 -6.9741,31.581 14.344,47.781 21.318,16.201 53.975,12.683 67.375,2.5 6.137,-4.6639 47.721,-28.04 61.359,-42.172 14.797,14.221 54.094,36.351 60.047,40.875 13.4,10.183 46.057,13.701 67.375,-2.5 21.318,-16.201 27.744,-37.582 14.344,-47.766 -5.5096,-4.1871 -13.52,-5.8331 -22.516,-5.1875 -1.6956,1.6503 -3.2892,3.2468 -4.8125,4.7969 1.2181,-1.4084 2.4916,-2.8638 3.9062,-4.5156 12.998,-15.177 -23.549,-32.814 -30.375,-33.234 -1.4726,-0.0907 -2.7769,0.66436 -3.8438,2.1875 -1.603,2.2886 -4.2108,4.1164 -7.4844,5.6094 11.769,-10.315 19.094,-24.804 19.094,-40.859 0,-23.698 -15.953,-44.003 -38.609,-52.484 5.1735,-4.4964 8.9303,-10.365 10.625,-17.297 1.3608,-5.5658 1.2437,-11.267 -0.10938,-16.781 2.1742,-2.1193 4.0568,-4.6492 5.5625,-7.5625 7.9908,-15.461 2.181,-35.901 -12.969,-45.672 -11.903,-7.6768 -26.005,-6.4763 -35.391,1.8906 -8.5813,-3.8485 -18.37,-6.0469 -28.781,-6.0469 -5.8808,0 -11.586,0.70091 -16.969,2 -5.5201,-6.1734 -13.255,-9.4178 -21.344,-9.2656 z"
           inkscape:connector-curvature="0"
           style="fill:#0e232e;stroke:#897345;stroke-width:1.676;stroke-linecap:round"
           sodipodi:nodetypes="ssscscscssccssscsssccssscscscsscscs"
           id="path4250" />
        <ellipse
           ry="20.007092"
           rx="13.553191"
           cy="-93.751778"
           cx="662.81561"
           transform="matrix(0.45238,0,0,0.45161,65.92,102.55)"
           style="fill:#0e232e;stroke:#897345;stroke-width:3.70799994;stroke-linecap:round"
           id="path4252" />
        <ellipse
           ry="20.007092"
           rx="13.553191"
           cy="-93.751778"
           cx="662.81561"
           transform="matrix(0.45238,0,0,0.45161,27.842,101.9)"
           style="fill:#0e232e;stroke:#897345;stroke-width:3.70799994;stroke-linecap:round"
           id="path4254" />
        <ellipse
           ry="67.765961"
           rx="42.595745"
           cy="281.86523"
           cx="-236.21277"
           transform="matrix(-0.36528,-0.29101,-0.36528,0.29101,470.28,90.452)"
           style="fill:#0e232e;stroke:#897345;stroke-width:3.63490009;stroke-linecap:round"
           id="path4256" />
        <path
           d="m 296.12,-1.3268 c -5.9095,-0.0888 -12.263,6.6554 -14.812,16.172 -2.8137,10.501 0.0681,20.387 6.4375,22.094 6.3694,1.7067 13.811,-5.4209 16.625,-15.922 0.87159,-3.2528 1.1871,-6.4481 1.0312,-9.3594 3.8641,-1.1643 6.5395,-3.503 6.5781,-6.1562 0.0544,-3.7403 -5.1478,-6.6991 -11.625,-6.6094 -0.71103,0.00985 -1.401,0.061255 -2.0781,0.14063 -0.11572,-0.03725 -0.22561,-0.07772 -0.34375,-0.10938 -0.59713,-0.16 -1.2012,-0.24082 -1.8125,-0.25 z"
           inkscape:connector-curvature="0"
           style="fill:#0e232e;stroke:#897345;stroke-width:1.676;stroke-linecap:round"
           sodipodi:nodetypes="sssscsscss"
           id="path4258" />
        <path
           d="m 390.95,6.6412 c 5.228,-0.86658 12.883,3.1771 17.981,9.7535 5.6253,7.2567 6.0036,14.839 0.84782,16.945 -5.1558,2.1059 -13.893,-2.0689 -19.518,-9.3256 -1.7425,-2.2479 -2.9735,-4.5293 -3.7009,-6.6682 -3.7821,-0.3225 -6.8566,-1.6606 -7.6801,-3.5854 -1.1609,-2.7134 2.5846,-5.5716 8.3705,-6.3854 0.63514,-0.089325 1.2639,-0.14556 1.8896,-0.17973 0.0918,-0.0428 0.17748,-0.08715 0.27311,-0.12621 0.48336,-0.19742 0.9964,-0.33818 1.5372,-0.42782 z"
           inkscape:connector-curvature="0"
           style="fill:#0e232e;stroke:#897345;stroke-width:1.676;stroke-linecap:round"
           sodipodi:nodetypes="sssscsscss"
           id="path4260" />
        <ellipse
           ry="67.765961"
           rx="42.595745"
           cy="281.86523"
           cx="-236.21277"
           transform="matrix(0.36528,-0.29101,0.36528,0.29101,217.57,91.743)"
           style="fill:#0e232e;stroke:#897345;stroke-width:3.63490009;stroke-linecap:round"
           id="path4262" />
        <ellipse
           ry="41.950356"
           rx="60.021278"
           cy="-107.95036"
           cx="-121.97872"
           transform="matrix(0.46774,0,0,0.40769,403.46,121.96)"
           style="fill:#0e232e;stroke:#897345;stroke-width:3.83800006;stroke-linecap:round"
           id="path4264" />
        <ellipse
           ry="20.007092"
           rx="13.553191"
           cy="-93.751778"
           cx="662.81561"
           transform="matrix(0,-0.57143,-0.64516,0,286.56,450.57)"
           style="fill:#0e232e;stroke:#897345;stroke-width:2.76029992;stroke-linecap:round"
           id="path4266" />
        <path
           d="m 335.18,82.078 c 0,0 4.2231,6.6484 14.245,6.0573 5.6325,-0.33225 9.5932,-6.8649 9.5932,-6.8649"
           inkscape:connector-curvature="0"
           style="fill:#0e232e;stroke:#897345;stroke-width:1.676"
           sodipodi:nodetypes="csc"
           id="path4268" />
        <path
           d="m 334.16,82.694 1.7981,-2.0619"
           inkscape:connector-curvature="0"
           style="fill:#0e232e;stroke:#897345;stroke-width:1.676"
           sodipodi:nodetypes="cc"
           id="path4270" />
        <path
           d="m 357.9,79.395 0.71923,2.4743 2.1577,-0.41238"
           inkscape:connector-curvature="0"
           style="fill:#0e232e;stroke:#897345;stroke-width:1.676"
           sodipodi:nodetypes="ccc"
           id="path4272" />
        <ellipse
           ry="7.5"
           rx="4.5"
           cy="-14.5"
           cx="369.5"
           transform="matrix(0.5,0,0,0.5,141.72,63.954)"
           style="fill:#0e232e;stroke:#897345;stroke-width:3.352;stroke-linecap:round"
           id="path4274" />
        <ellipse
           ry="7.5"
           rx="4.5"
           cy="-14.5"
           cx="369.5"
           transform="matrix(0.5,0,0,0.5,182.22,64.954)"
           style="fill:#0e232e;stroke:#897345;stroke-width:3.352;stroke-linecap:round"
           id="path4276" />
        <ellipse
           ry="7.5"
           rx="4.5"
           cy="-14.5"
           cx="369.5"
           transform="matrix(-0.056108,1.0401,-1.2344,0.056108,347.5,-314.36)"
           inkscape:transform-center-y="15.008507"
           inkscape:transform-center-x="5.4712217"
           style="fill:#0e232e;stroke:#897345;stroke-width:1.48099995;stroke-linecap:round"
           id="path4278" />
        <path
           d="m 346.22,103.95 c 0,0 -50.388,12.506 -49.5,20 0.75063,6.3349 25.069,6.9526 30,11 4.2998,3.5294 9,12 9,12 12.718,-3.3371 10.754,8.9947 16.5,20.5 3.9192,7.8476 2.4409,6.9262 0,8 -2.4835,1.0925 -3.3335,-6.359 -5,-8.5 -1.5115,-1.9419 -6.6278,-2.2639 -4.5,-3.5 4.0787,-2.3694 6.9427,7.316 7.5,12 0.31135,2.6168 -0.31209,6.0312 -2.5,7.5 -2.0802,1.3966 -9.3427,2.5128 -7.5,-0.5 3.0769,-5.0308 -0.96722,-6.623 -3.5,-10 l -4.5,-6 c -4.6517,-6.2022 7.0496,7.9964 8,17.5 -0.61004,11.028 -19.451,-2.8686 -26.5,-1 -15.604,4.4669 -12.079,-15.042 -14.5,-16 -2.6392,-1.0442 2.8382,10.499 0,10.5 -26.88,0.0117 -51.823,-10.265 -54.5,-33 -1.6678,-38.236 36.5,-54.5 36.5,-54.5 20.766,21.785 42.947,16.683 65,14 z"
           inkscape:connector-curvature="0"
           style="fill:#0e232e;stroke:#897345;stroke-width:1.676"
           sodipodi:nodetypes="csscsssssssssccssccc"
           id="path4280" />
        <path
           d="m 398.72,113.95 c -2.0279,4.2326 -4.6438,8.3246 -8.5,11 -5.9026,4.0952 -14.434,6.2993 -21.5,5 -14.685,-2.7004 -25,10 -25,10 0,0 -4.0632,11.566 0,13.5 3.1024,1.4767 8,-6.5 8,-6.5 0,0 -13.011,7.6047 -2,16.5 4.069,3.287 12,-13.5 12,-13.5 0,0 -8.0545,11.696 -6.5,16 12.995,19.07 52.658,-19.154 35.5,-6.5 0,0 22.233,0.80667 33,-1.5 19.604,-4.1998 17,-24 17,-24 0,0 -1.901,-12.529 -6.5,-18.5 -40.414,-52.473 -80.5,-12.5 -80.5,-12.5 0,0 48.416,3.8704 45,11 z"
           inkscape:connector-curvature="0"
           style="fill:#0e232e;stroke:#897345;stroke-width:1.676"
           sodipodi:nodetypes="ssscscscccscscs"
           id="path4282" />
      </g>
      <ellipse
         transform="matrix(0.5,0,0,0.5,144.72,65.454)"
         style="fill:#ff9900;stroke-width:0"
         id="path3363"
         cx="-119.39716"
         cy="-109.88653"
         rx="0.64539009"
         ry="2.5815604" />
      <path
         id="path3332"
         d="m 279.33,78.595 c -5.4767,0.10306 -11.12,1.7663 -16.328,5.125 -15.15,9.7707 -20.96,30.227 -12.969,45.688 0.18478,0.35752 0.39763,0.701 0.59375,1.0469 -6.4724,9.3519 -9.1775,20.401 -6.5938,30.969 1.8115,7.4089 5.9856,13.596 11.719,18.203 -20.523,9.2738 -34.625,28.558 -34.625,50.844 0,12.667 4.5469,24.359 12.25,33.797 -0.34603,-0.0807 -0.70999,-0.11643 -1.0781,-0.0937 -6.8256,0.4205 -43.373,18.041 -30.375,33.219 1.3986,1.6331 2.6374,3.0737 3.8438,4.4688 -1.5062,-1.5319 -3.0761,-3.1052 -4.75,-4.7344 -8.9956,-0.64562 -17.006,0.98481 -22.516,5.1719 -13.4,10.183 -6.9741,31.581 14.344,47.781 21.318,16.201 53.975,12.683 67.375,2.5 6.137,-4.6639 47.721,-28.04 61.359,-42.172 14.797,14.221 54.094,36.351 60.047,40.875 13.4,10.183 46.057,13.701 67.375,-2.5 21.318,-16.201 27.744,-37.582 14.344,-47.766 -5.5096,-4.1871 -13.52,-5.8331 -22.516,-5.1875 -1.6956,1.6503 -3.2892,3.2468 -4.8125,4.7969 1.2181,-1.4084 2.4916,-2.8638 3.9062,-4.5156 12.998,-15.177 -23.549,-32.814 -30.375,-33.234 -1.4726,-0.0907 -2.7769,0.66436 -3.8438,2.1875 -1.603,2.2886 -4.2108,4.1164 -7.4844,5.6094 11.769,-10.315 19.094,-24.804 19.094,-40.859 0,-23.698 -15.953,-44.003 -38.609,-52.484 5.1735,-4.4964 8.9303,-10.365 10.625,-17.297 1.3608,-5.5658 1.2437,-11.267 -0.10938,-16.781 2.1742,-2.1193 4.0568,-4.6492 5.5625,-7.5625 7.9908,-15.461 2.181,-35.901 -12.969,-45.672 -11.903,-7.6768 -26.005,-6.4763 -35.391,1.8906 -8.5813,-3.8485 -18.37,-6.0469 -28.781,-6.0469 -5.8808,0 -11.586,0.70091 -16.969,2 -5.5201,-6.1734 -13.255,-9.4178 -21.344,-9.2656 z"
         sodipodi:nodetypes="ssscscscssccssscsssccssscscscsscscs"
         style="fill:url(#linearGradient4288);stroke:#897345;stroke-width:1.676;stroke-linecap:round"
         inkscape:connector-curvature="0" />
      <ellipse
         id="path3367"
         style="fill:#0e232e;stroke:#897345;stroke-width:1.67599678;stroke-linecap:round"
         cx="342.76453"
         cy="149.21075"
         rx="6.1311927"
         ry="9.0354023" />
      <ellipse
         id="path3365"
         style="fill:#0e232e;stroke:#897345;stroke-width:1.67599678;stroke-linecap:round"
         cx="304.68652"
         cy="148.56076"
         rx="6.1311927"
         ry="9.0354023" />
      <ellipse
         id="path3359"
         style="opacity:0.528;fill:#ff6600;stroke:#897345;stroke-width:1.69760454;stroke-linecap:round"
         transform="matrix(-0.78213521,-0.62310876,-0.78213521,0.62310876,0,0)"
         cx="-540.25079"
         cy="-10.29858"
         rx="19.893457"
         ry="31.648684" />
      <path
         id="path3323"
         d="m 273.12,87.6732 c -5.9095,-0.0888 -12.263,6.6554 -14.812,16.172 -2.8137,10.501 0.0681,20.387 6.4375,22.094 6.3694,1.7067 13.811,-5.4209 16.625,-15.922 0.87159,-3.2528 1.1871,-6.4481 1.0312,-9.3594 3.8641,-1.1643 6.5395,-3.503 6.5781,-6.1562 0.0544,-3.7403 -5.1478,-6.6991 -11.625,-6.6094 -0.71103,0.0099 -1.401,0.06126 -2.0781,0.14063 -0.11572,-0.03725 -0.22561,-0.07772 -0.34375,-0.10938 -0.59713,-0.16 -1.2012,-0.24082 -1.8125,-0.25 z"
         sodipodi:nodetypes="sssscsscss"
         style="fill:#b88100;stroke:#897345;stroke-width:1.676;stroke-linecap:round"
         inkscape:connector-curvature="0" />
      <path
         id="path3328"
         sodipodi:nodetypes="sssscsscss"
         style="fill:#b88100;stroke:#897345;stroke-width:1.676;stroke-linecap:round"
         inkscape:connector-curvature="0"
         d="m 367.95,95.6412 c 5.228,-0.86658 12.883,3.1771 17.981,9.7535 5.6253,7.2567 6.0036,14.839 0.84782,16.945 -5.1558,2.1059 -13.893,-2.0689 -19.518,-9.3256 -1.7425,-2.2479 -2.9735,-4.5293 -3.7009,-6.6682 -3.7821,-0.3225 -6.8566,-1.6606 -7.6801,-3.5854 -1.1609,-2.7134 2.5846,-5.5716 8.3705,-6.3854 0.63514,-0.08933 1.2639,-0.14556 1.8896,-0.17973 0.0918,-0.0428 0.17748,-0.08715 0.27311,-0.12621 0.48336,-0.19742 0.9964,-0.33818 1.5372,-0.42782 z" />
      <ellipse
         id="path3345"
         style="opacity:0.528;fill:#ff6600;stroke:#897345;stroke-width:1.69760454;stroke-linecap:round"
         transform="matrix(0.78213521,-0.62310876,0.78213521,0.62310876,0,0)"
         cx="-130.96767"
         cy="401.05643"
         rx="19.893457"
         ry="31.648684" />
      <ellipse
         id="path3361"
         style="fill:#ff9900;stroke:#897345;stroke-width:1.6759932;stroke-linecap:round"
         cx="323.40567"
         cy="166.94972"
         rx="28.074352"
         ry="17.102741" />
      <ellipse
         id="path3369"
         style="fill:#0e232e;stroke:#897345;stroke-width:1.67599034;stroke-linecap:round"
         transform="matrix(0,-1,-1,0,0,0)"
         cx="-160.81728"
         cy="-324.04489"
         rx="7.7447"
         ry="12.907775" />
      <path
         id="path3371"
         d="m 312.18,171.078 c 0,0 4.2231,6.6484 14.245,6.0573 5.6325,-0.33225 9.5932,-6.8649 9.5932,-6.8649"
         sodipodi:nodetypes="csc"
         style="fill:none;stroke:#897345;stroke-width:1.676"
         inkscape:connector-curvature="0" />
      <path
         id="path3385"
         d="m 311.16,171.694 1.7981,-2.0619"
         sodipodi:nodetypes="cc"
         style="fill:none;stroke:#897345;stroke-width:1.676"
         inkscape:connector-curvature="0" />
      <path
         id="path3387"
         d="m 334.9,168.395 0.71923,2.4743 2.1577,-0.41238"
         sodipodi:nodetypes="ccc"
         style="fill:none;stroke:#897345;stroke-width:1.676"
         inkscape:connector-curvature="0" />
      <ellipse
         id="path4160"
         style="fill:url(#linearGradient9211);stroke:#897345;stroke-width:1.676;stroke-linecap:round"
         cx="303.47"
         cy="145.70399"
         rx="2.25"
         ry="3.75" />
      <ellipse
         id="path4170"
         style="fill:url(#linearGradient9213);stroke:#897345;stroke-width:1.676;stroke-linecap:round"
         cx="343.97"
         cy="146.70399"
         rx="2.25"
         ry="3.75" />
      <ellipse
         id="path4174"
         style="fill:url(#linearGradient4290);stroke:#897345;stroke-width:1.68019676;stroke-linecap:round"
         inkscape:transform-center-x="5.4712217"
         inkscape:transform-center-y="15.008507"
         transform="matrix(-0.05386649,0.99854815,-0.99896858,0.04540678,0,0)"
         cx="173.4408"
         cy="-331.35132"
         rx="4.6872554"
         ry="9.2675591" />
      <g
         id="layer1-3"
         inkscape:label="Layer 1"
         transform="translate(-197.24376,7.4338)">
        <g
           id="g141016"
           transform="translate(1.1173185,-2.234637)">
          <g
             id="g9422">
            <path
               id="path3118"
               sodipodi:nodetypes="ccaac"
               style="fill:#000000;fill-rule:evenodd;filter:url(#filter3892)"
               inkscape:connector-curvature="0"
               d="m 137.17,160.12 c 56.531,24.23 83.617,8.587 115.91,0 0,0 31.076,100.77 0,131.84 -27.321,27.321 -88.593,27.321 -115.91,0 -31.076,-31.076 0,-131.84 0,-131.84 z"
               transform="matrix(0.71900558,0,0,0.7179647,376.82944,69.962934)" />
            <path
               id="rect2985"
               sodipodi:nodetypes="ccaac"
               style="fill:#552200;fill-rule:evenodd;stroke:#000000;stroke-width:0.27260038"
               inkscape:connector-curvature="0"
               d="m 475.53453,184.92344 c 40.6461,17.39629 60.12109,6.16517 83.33993,0 0,0 22.34382,72.34931 0,94.65647 -19.64395,19.61551 -63.69886,19.61551 -83.33993,0 -22.34382,-22.31147 0,-94.65647 0,-94.65647 z" />
            <path
               id="path3819"
               d="m 474.59263,184.92344 c 40.6461,17.39629 60.12109,6.16517 83.33994,0 0,0 22.34381,72.34931 0,94.65647 -19.64396,19.61551 -63.69887,19.61551 -83.33994,0 -22.34382,-22.31147 0,-94.65647 0,-94.65647 z"
               sodipodi:nodetypes="ccaac"
               style="fill:url(#linearGradient3102);fill-rule:evenodd"
               inkscape:connector-curvature="0" />
            <path
               style="fill:#dbc768;fill-opacity:1;fill-rule:evenodd;stroke:#706f6b;stroke-width:1;stroke-linecap:round;stroke-linejoin:round;stroke-miterlimit:4;stroke-dasharray:none;stroke-opacity:1"
               d="m 517.18963,171.88872 c -23.12568,0 -41.87505,6.31206 -41.87505,14.09847 0,0.0927 0.0157,0.18396 0.0211,0.27625 -0.005,0.0923 -0.0211,0.18353 -0.0211,0.27625 0,2.04143 1.3003,3.97953 3.6189,5.73109 0.0918,1.29495 -0.27452,2.69798 -1.0125,4.19 0.0337,3.07976 2.85157,2.73123 4.14691,1.09097 4.2965,2.17525 -0.27781,9.28834 5.84755,9.96317 4.69031,2.41212 5.12587,-1.82332 4.65106,-5.43522 0.61956,-2.00535 2.87332,-2.03393 3.90397,-3.29114 2.12955,0.40918 4.37295,0.75783 6.71541,1.03768 -0.0352,0.73541 -0.30089,1.46966 -0.88191,2.12305 -3.9063,4.68287 0.8651,9.45528 5.84613,9.41207 1.73939,-3.52158 -0.12706,-7.48732 1.27511,-10.97 1.3641,0.0862 2.75088,0.15026 4.15816,0.19071 0.20998,2.17778 0.046,4.96301 0.21907,6.14056 -3.35156,4.4666 5.98135,7.43705 5.3125,2.1567 -0.90295,-3.2836 -0.13153,-10.47361 4.29718,-7.55265 3.06092,2.93086 -0.54245,11.26467 5.06253,10.54791 4.55288,-3.86866 0.17883,-7.85825 -1.35937,-11.63888 1.22643,-0.10042 2.43038,-0.21889 3.61188,-0.35478 0.29963,1.5464 0.48364,3.23056 0.77237,4.17177 2.93253,0.67109 0.78626,-5.4775 4.80835,-4.62471 -0.004,-0.11576 0.007,-0.23278 0.0126,-0.34916 1.95417,-0.33866 3.82039,-0.727 5.58072,-1.16108 0.14734,3.85117 -6.21995,10.52617 -0.0703,11.35422 2.71577,0.81319 0.11108,-6.85217 3.53465,-4.8056 -1.2336,2.88794 2.56638,5.54776 2.63167,1.62664 0.38892,-3.15516 3.52123,3.03842 3.46302,4.3779 0.39702,4.65655 4.46165,2.01944 3.44337,-1.32094 -0.22006,-3.16028 -5.59857,-9.17442 0.53785,-9.36019 1.86354,0.64884 1.55492,5.94347 3.47004,1.81315 0.005,-2.72856 -2.96691,-5.0606 0.3272,-6.86694 0.0493,-1.48728 -0.36654,-3.49319 -1.27511,-4.9921 0.71119,-1.0298 1.09958,-2.10152 1.09958,-3.2042 0,-0.0927 -0.0157,-0.18396 -0.0211,-0.27625 0.005,-0.0923 0.0211,-0.18352 0.0211,-0.27625 0,-7.78592 -18.7469,-14.09847 -41.87365,-14.09847 z"
               id="path2990"
               inkscape:connector-curvature="0" />
            <g
               id="g140991"
               transform="matrix(0.71900558,0,0,0.7179647,379.85568,116.88142)"
               style="opacity:0.84100001;filter:url(#filter141008)">
              <g
                 id="text140911"
                 style="font-style:normal;font-weight:normal;font-size:40px;line-height:125%;font-family:sans-serif;letter-spacing:0px;word-spacing:0px;fill:#ffe6d5;fill-opacity:1;stroke:#ddb088;stroke-width:1px;stroke-linecap:butt;stroke-linejoin:miter;stroke-opacity:1;filter:url(#filter140987)"
                 transform="matrix(0.95080522,-0.31701364,0.30988199,0.97858113,-35.189154,53.667873)">
                <path
                   inkscape:connector-curvature="0"
                   id="path140929"
                   style="font-style:normal;font-variant:normal;font-weight:normal;font-stretch:normal;font-family:blzee;-inkscape-font-specification:blzee;fill:#ffe6d5;stroke:#ddb088;stroke-opacity:1"
                   d="m 151.98091,133.51273 q -1.15026,0.0795 -2.03946,-0.42088 l -0.39613,0.29533 -1.81464,1.30667 q -0.28007,2.04233 -1.54605,3.27892 -0.26637,2.43272 -2.26017,3.75741 -0.81558,2.26438 -2.56236,3.16608 -2.92057,5.3206 -6.34737,6.24219 l -0.92655,1.33021 q -1.22154,3.8382 1.67274,5.11633 1.22587,-0.59807 2.36209,-0.52071 1.71705,-1.30324 3.42371,-1.56641 1.02094,-0.6456 1.89245,-0.87163 l 0.60901,0.4242 0.56988,-0.57894 q 2.44676,0.10952 4.1227,1.08647 -0.077,0.58901 0.24062,0.95308 l -0.27908,0.40067 q -0.32263,0.94159 -0.78662,1.64189 l -0.0891,0.91385 -0.15087,0.48997 -1.29494,1.85908 q -0.71422,1.81133 -1.84138,2.8828 l 0.32992,0.82486 q -0.861,1.30446 -0.21684,2.39581 0.31954,1.86493 2.15673,1.31185 0.53584,-0.76928 0.68615,-1.49766 l 0.0504,-0.34573 q 1.22421,-1.3133 1.5234,-2.69965 0.85382,-0.95242 1.29494,-1.85908 l 0.43017,-0.10501 0.2562,-0.60702 0.39127,-0.32252 q 0.34407,-0.66483 0.50754,-1.24123 l 0.36839,-0.52888 1.33362,-2.42719 q -0.0957,-1.94706 0.41756,-3.46992 l -0.0735,-0.64625 -0.86544,-0.60282 q -0.84333,-1.4205 -1.52043,-2.22536 l -0.44189,-0.11738 q -0.29279,0.0103 -0.45792,-0.12854 -0.30395,0.0263 -0.46908,-0.11252 l -0.36861,-0.25675 -2.3076,-0.82188 -0.41901,0.089 q -1.14198,0.20426 -1.86549,0.0811 -1.21039,0.37082 -2.29567,0.18614 l 0.51926,-1.01885 0.40729,-0.31136 1.85311,-2.66041 0.39126,-0.32252 0.4073,-0.31136 0.48057,-0.45074 0.40729,-0.31136 q 0.53529,-1.00768 1.20564,-1.73087 0.94081,-0.70141 1.44603,-1.56342 2.16844,-1.91711 3.14826,-3.73386 -0.4083,-1.49832 -0.16348,-2.87494 l -1.10584,-0.77027 z" />
                <path
                   inkscape:connector-curvature="0"
                   id="path140931"
                   style="font-style:normal;font-variant:normal;font-weight:normal;font-stretch:normal;font-family:blzee;-inkscape-font-specification:blzee;fill:#ffe6d5;stroke:#ddb088;stroke-opacity:1"
                   d="m 170.0637,160.40966 q -2.16507,-0.17995 -3.76533,-1.25593 -3.22544,0.35477 -5.78593,-0.81476 l -1.11091,0.24613 q -1.23967,-0.10409 -2.14907,0.0473 -1.55807,1.85919 -3.33263,2.07483 l -0.59277,1.16664 q -1.12033,0.35089 -1.64175,1.29089 -2.66824,0.63788 -1.72868,6.63603 0.082,0.83034 0.56728,1.42744 0.10656,1.08381 0.71317,1.83019 l 1.02734,0.52199 q 0.48491,-0.69566 1.19251,-0.70856 1.35046,0.53281 2.1232,1.25406 l 0.60398,-0.197 0.38307,0.19464 q 0.96795,0.25082 1.61165,0.66552 2.17476,0.0315 3.64767,0.53891 l 0.45583,-0.25037 0.3939,-0.12848 q 1.55366,0.176 2.73563,-0.25311 2.25242,0.18051 3.90848,-0.62114 l 0.70619,0.20547 0.85857,-0.39626 q 1.4585,-1.31828 3.00726,-1.73628 0.92812,-1.6973 0.86862,-3.30489 0.95381,-1.61852 0.5455,-3.31571 -1.13614,-1.25642 -1.68055,-2.16835 -1.43611,-0.79541 -2.14523,-1.90058 -1.01133,-0.29478 -1.417,-1.04859 z m -4.06988,2.62037 q 3.08455,1.17291 3.95877,3.76407 1.73617,1.67082 0.53577,3.6022 -2.49638,1.07573 -4.68291,0.16193 -0.86083,0.74563 -1.69409,-0.0721 l -0.94733,0.61406 -1.13181,-0.57508 q -3.2694,0.39816 -6.18962,-1.87428 l -0.058,-0.48953 -0.56689,-0.13468 q -0.0301,-2.09655 0.89714,-3.66283 0.75871,0.18833 1.15543,-0.37687 l 0.74873,0.38043 q 1.1083,2.86345 4.60198,1.54958 l -0.18646,-0.88342 0.2546,-0.19926 q 0.88219,-1.3482 1.53322,-2.06898 l 1.77146,0.26475 z" />
                <path
                   inkscape:connector-curvature="0"
                   id="path140933"
                   style="font-style:normal;font-variant:normal;font-weight:normal;font-stretch:normal;font-family:blzee;-inkscape-font-specification:blzee;fill:#ffe6d5;stroke:#ddb088;stroke-opacity:1"
                   d="m 183.3538,165.51137 q -1.46324,1.18487 -2.76103,1.54544 -1.21676,1.56847 -2.77968,2.26547 l 0.0565,-0.87163 q 2.79403,-1.91968 -1.64101,-4.71739 -1.25033,0.57371 -2.23087,0.63097 -0.39285,0.76757 -0.8995,1.26517 0.39853,1.46831 -0.62423,2.50141 l 0.44079,0.573 q -0.20805,0.91433 -0.64835,1.46875 -0.0369,2.32589 -1.29153,3.96543 -0.41612,1.74814 -1.43415,2.7623 0.47998,3.64257 3.10901,3.59408 0.81917,-0.78195 1.84707,-0.86766 0.72878,-1.71037 1.85105,-2.65825 0.21274,-1.01381 1.11731,-1.49264 0.83761,-1.98516 2.68485,-2.45017 l 0.17498,-0.70116 q 1.41618,-0.43167 2.15469,-1.53571 l 0.91447,0.53016 q 1.45861,-0.92433 2.61991,0.79471 0.84507,4.43824 -1.43662,8.09619 l -0.0565,0.87163 -0.34471,2.5913 q 0.90097,2.1976 3.13688,2.27244 1.52026,-0.76804 1.03538,-4.7943 0.30296,-0.48804 0.43061,-1.08023 l 0.10404,-0.4169 0.45398,-1.81921 q 0.62505,-0.56871 0.86167,-1.11356 l -0.0617,-0.31736 0.31211,-1.2507 q -0.25642,-1.47311 0.21206,-2.62441 -0.1565,-0.42152 -0.10928,-0.77208 -0.94332,-1.54388 -1.00555,-3.06917 -1.67734,-1.02249 -2.16593,-2.61392 -1.40206,0.21376 -2.23611,-0.55802 l -1.26965,-0.31685 -0.52094,0.31287 z" />
                <path
                   inkscape:connector-curvature="0"
                   id="path140935"
                   style="font-style:normal;font-variant:normal;font-weight:normal;font-stretch:normal;font-family:blzee;-inkscape-font-specification:blzee;fill:#ffe6d5;stroke:#ddb088;stroke-opacity:1"
                   d="m 200.23054,166.47894 q -0.11073,0.16089 -0.22862,0.14615 -2.87948,0.33234 -4.95574,1.66796 l -0.34057,0.75668 -0.96621,0.27394 q -0.90969,0.70167 -1.68234,0.92863 -0.0685,0.23736 -0.24336,0.26403 -0.20874,0.63402 -0.44813,0.99563 -1.67287,2.12064 -1.89924,4.24099 -0.0801,0.4333 -0.34057,0.75667 l 0.0199,0.48788 0.27835,0.59463 -0.21871,0.869 q 0.22377,0.69459 0.30378,1.21911 l 0.31369,1.94197 0.1322,0.36601 0.38032,0.21908 0.28868,0.84832 q 0.81161,0.72929 1.15248,1.41911 l 0.37635,0.1215 0.24849,0.34173 0.63005,0.11116 0.37556,0.10198 0.24451,0.24416 0.37079,-0.0151 0.25847,0.10676 2.36204,0.88114 0.48311,-0.13697 q 0.56116,-0.14015 0.97575,-0.0398 l 0.36522,-0.15171 0.72206,-0.0294 0.9905,-0.15764 q 1.37443,-0.32966 2.42984,-0.33356 l 0.23382,-0.49821 0.35127,-0.0143 q 0.68823,-0.37989 1.46804,-0.43121 0.59506,-0.7475 1.55527,-0.68888 0.28919,-0.57866 0.82925,-0.75704 l -0.16241,-1.10759 q -1.36049,0.19226 -2.32707,-0.0225 -0.9232,0.36992 -1.71255,0.18706 -4.06238,1.04515 -7.72276,-0.0372 -0.3572,-0.61097 -0.89365,-0.82368 0.70023,-1.045 1.5203,-1.54755 l 0.468,-0.50775 0.60937,-0.39623 0.59543,-0.25883 q 1.39684,-1.69889 2.96925,-2.44712 l 0.10198,-0.37555 0.36602,-0.1322 q 0.96628,-1.23176 2.13523,-1.80717 0.32785,-1.06892 1.29168,-1.4014 l 0.17455,-1.47317 q 1.33273,-1.83312 -0.13993,-3.43465 -0.94345,-0.60663 -1.86384,-0.64732 l -0.23974,-0.12707 q -1.18963,0.068 -1.98613,-0.29048 z m 0.42384,4.16589 q -0.32951,1.98772 -2.10104,2.64632 -1.19216,1.92512 -3.24319,1.4809 -0.51621,0.76384 -1.3211,0.67935 0.10885,-1.64642 1.48611,-2.3867 1.13917,-1.78613 3.11099,-1.84692 0.42738,-0.54519 0.96505,-0.78212 l 1.10318,0.20917 z" />
                <path
                   sodipodi:nodetypes="cccccscccccccccccccccccccccccccccccccc"
                   inkscape:connector-curvature="0"
                   id="path140937"
                   style="font-style:normal;font-variant:normal;font-weight:normal;font-stretch:normal;font-family:blzee;-inkscape-font-specification:blzee;fill:#ffe6d5;stroke:#ddb088;stroke-opacity:1"
                   d="m 203.66046,168.1497 c -1.84556,2.19895 -1.82583,3.95565 0.0592,5.2701 l 0.49231,-0.042 c 0.8509,1.44816 1.70781,2.48255 2.57074,3.10318 0.87489,0.61547 1.61887,1.17393 2.23195,1.67538 1.00933,0.30233 1.73221,0.56504 2.16863,0.78815 0.43643,0.22311 1.52349,0.49194 3.26119,0.80651 l 2.66266,-0.97726 0.18551,0.43048 c -0.30068,0.98027 -0.25531,1.87522 0.13612,2.68485 -0.27511,0.94089 -0.20252,1.7674 0.21777,2.47952 -0.0303,4.53595 -2.03922,6.41774 0.2041,9.94558 0.42076,0.0881 0.79214,0.27541 1.11414,0.562 0.67558,0.12006 1.25034,0.26937 1.72429,0.44795 0.7653,-0.32978 1.37909,-0.76442 1.84135,-1.3039 l -0.44057,-1.02239 c -1.97796,-1.62886 0.0547,-1.46502 -0.13294,-3.80867 -0.76058,-1.60051 -0.97824,-3.15849 -0.65298,-4.67395 -0.82591,-1.78502 -0.96512,-3.44061 -0.41762,-4.96677 -0.49023,-2.35502 -0.1173,-4.40144 1.11881,-6.13926 0.3065,-1.4932 0.82047,-2.6859 1.54191,-3.57809 l -0.084,-0.98464 0.30681,-0.47249 1.31676,-3.31092 c -0.30763,-1.66808 -0.98299,-2.97211 -2.02608,-3.9121 -1.84717,-0.33828 -3.26685,0.21677 -4.25904,1.66516 l 0.30918,0.71747 -0.7373,0.658 c -0.0221,0.90278 0.0983,1.70868 0.36127,2.41769 l -0.46824,0.54205 c 0.11785,0.79992 -0.0859,1.51157 -0.61127,2.13495 0.0201,0.67188 -0.0582,1.27984 -0.23489,1.82388 0.27554,1.00135 0.13022,1.86505 -0.43597,2.5911 0.056,0.65642 -0.0249,1.2584 -0.24262,1.80595 -2.97411,0.40255 -6.09475,-1.95324 -9.36192,-7.06738 -0.95741,0.0156 -1.78791,-0.20074 -2.4915,-0.64903 -0.46635,0.20096 -0.87559,0.3206 -1.22772,0.35891 z" />
              </g>
              <path
                 sodipodi:nodetypes="cc"
                 inkscape:connector-curvature="0"
                 id="path140920"
                 d="m 130.15595,157.94968 c 38.42382,29.39934 87.73285,50.70456 128.38954,-13.67627"
                 style="fill:none;fill-rule:evenodd;stroke:none;stroke-width:1px;stroke-linecap:butt;stroke-linejoin:miter;stroke-opacity:1" />
            </g>
          </g>
        </g>
      </g>
      <path
         id="path4186"
         d="m 277.54526,191.57976 c 0,0 -4.71326,13.87624 -3.82526,21.37024 0.75063,6.3349 25.069,6.9526 30,11 4.2998,3.5294 9,12 9,12 12.718,-3.3371 10.754,8.9947 16.5,20.5 3.9192,7.8476 2.4409,6.9262 0,8 -2.4835,1.0925 -3.3335,-6.359 -5,-8.5 -1.5115,-1.9419 -6.6278,-2.2639 -4.5,-3.5 4.0787,-2.3694 6.9427,7.316 7.5,12 0.31135,2.6168 -0.31209,6.0312 -2.5,7.5 -2.0802,1.3966 -9.3427,2.5128 -7.5,-0.5 3.0769,-5.0308 -0.96722,-6.623 -3.5,-10 l -4.5,-6 c -4.6517,-6.2022 7.0496,7.9964 8,17.5 -0.61004,11.028 -19.451,-2.8686 -26.5,-1 -15.604,4.4669 -12.079,-15.042 -14.5,-16 -2.6392,-1.0442 2.8382,10.499 0,10.5 -26.88,0.0117 -51.823,-10.265 -54.5,-33 -1.6678,-38.236 36.5,-54.5 36.5,-54.5 10.26081,3.74348 9.83281,5.26431 19.32526,12.62976 z"
         sodipodi:nodetypes="csscsssssssssccssccc"
         style="fill:url(#linearGradient4296);stroke:#897345;stroke-width:1.676"
         inkscape:connector-curvature="0" />
      <path
         id="path4196"
         d="m 375.72,202.95 c -2.0279,4.2326 -4.6438,8.3246 -8.5,11 -5.9026,4.0952 -14.434,6.2993 -21.5,5 -14.685,-2.7004 -25,10 -25,10 0,0 -4.0632,11.566 0,13.5 3.1024,1.4767 8,-6.5 8,-6.5 0,0 -13.011,7.6047 -2,16.5 4.069,3.287 12,-13.5 12,-13.5 0,0 -8.0545,11.696 -6.5,16 12.995,19.07 52.658,-19.154 35.5,-6.5 0,0 22.233,0.80667 33,-1.5 19.604,-4.1998 17,-24 17,-24 0,0 -1.901,-12.529 -6.5,-18.5 -40.414,-52.473 -55.37889,-22.32007 -55.37889,-22.32007 0,0 23.29489,13.69047 19.87889,20.82007 z"
         sodipodi:nodetypes="ssscscscccscscs"
         style="fill:url(#linearGradient4298);stroke:#897345;stroke-width:1.676"
         inkscape:connector-curvature="0" />
      <path
         sodipodi:nodetypes="cccccccccccccccccc"
         inkscape:connector-curvature="0"
         id="path9453"
         d="m 305.6486,261.17871 c -4.50521,-1.66232 -8.67781,0.74265 -12.63877,2.55287 -3.236,1.52528 -7.54382,1.3831 -10.25202,3.99425 -3.45258,2.31736 0.44614,5.50853 3.28286,3.56941 4.2896,1.45835 1.67986,7.65819 2.67519,11.12844 0.50901,2.9148 5.05886,7.52459 5.87757,2.34018 0.27908,-1.6873 -0.86906,-7.50462 1.99847,-4.52497 0.98245,2.64457 2.81581,6.92492 4.81793,8.05927 3.49585,-2.20866 0.56973,-7.17861 2.69182,-10.1818 4.30489,0.0487 3.28454,6.74274 3.07407,9.89849 -0.86789,4.10282 5.51859,4.5131 4.04612,0.13038 -0.095,-2.48068 -0.46275,-8.43077 2.93394,-4.3514 2.10175,2.59647 -0.71394,8.7781 4.03565,9.03635 4.04027,-1.8962 0.25301,-7.25302 1.39205,-10.6234 0.82011,-5.85553 8.5179,4.73749 7.73727,-3.11013 0.1134,-2.81924 1.46299,-6.28018 0.12752,-8.67264 -2.83871,-1.45545 -5.56536,-4.39537 -8.49905,-4.8293 -5.15869,-2.61083 3.23559,-4.2909 -13.30062,-4.416 z"
         style="opacity:0.70200004;fill:#dbc768;fill-opacity:1;fill-rule:evenodd;stroke:#6f6c66;stroke-width:1px;stroke-linecap:butt;stroke-linejoin:miter;stroke-opacity:1" />
      <path
         style="opacity:0.70200004;fill:#dbc768;fill-opacity:1;fill-rule:evenodd;stroke:#6f6c66;stroke-width:0.897879px;stroke-linecap:butt;stroke-linejoin:miter;stroke-opacity:1"
         d="m 359.72319,244.01076 c 3.62051,-1.66761 5.85236,-2.50693 9.0355,-0.69094 2.60053,1.53013 6.06241,1.3875 8.2388,4.00697 2.77458,2.32474 -0.35853,5.52607 -2.6382,3.58078 -3.44724,1.46299 -0.67716,4.54276 -1.47703,8.02407 -0.40906,2.92408 1.65351,16.85587 -5.3962,5.48745 -0.22427,-1.69268 0.6984,-7.52853 -1.60602,-4.53938 -0.78952,2.65299 -2.03859,4.70424 -3.64755,5.84221 -2.80936,-2.2157 -0.79426,-2.82816 -2.49963,-5.84092 -3.45952,0.0489 -2.5274,4.63363 -2.35826,7.79943 0.69746,4.11589 -4.43489,4.52748 -3.25157,0.1308 0.0763,-2.48858 0.37187,-8.45762 -2.3578,-4.36526 -1.68902,2.60474 -2.0054,7.79683 -5.8223,8.0559 -3.24686,-1.90224 2.37582,-6.26689 1.46046,-9.64801 -0.65907,-5.87418 -11.21854,3.07053 -10.5912,-4.80208 -0.0911,-2.82822 3.19762,-4.61814 4.27084,-7.01822 2.28126,-1.46008 3.79965,-0.93314 6.15724,-1.36845 4.14567,-2.61915 -0.80602,-4.52885 12.48292,-4.65435 z"
         id="path9462"
         inkscape:connector-curvature="0"
         sodipodi:nodetypes="cccccccccccccccccc" />
    </g>
  </g>
  <metadata
     id="metadata8669">
    <rdf:RDF>
      <cc:Work>
        <dc:format>image/svg+xml</dc:format>
        <dc:type
           rdf:resource="http://purl.org/dc/dcmitype/StillImage" />
        <cc:license
           rdf:resource="http://creativecommons.org/publicdomain/zero/1.0/" />
        <dc:publisher>
          <cc:Agent
             rdf:about="http://openclipart.org/">
            <dc:title>Openclipart</dc:title>
          </cc:Agent>
        </dc:publisher>
        <dc:title></dc:title>
        <dc:date></dc:date>
        <dc:description>remix by j4p4n</dc:description>
        <dc:source></dc:source>
        <dc:creator>
          <cc:Agent>
            <dc:title>netalloy</dc:title>
          </cc:Agent>
        </dc:creator>
        <dc:subject>
          <rdf:Bag>
            <rdf:li>bear cub</rdf:li>
            <rdf:li>birthday</rdf:li>
            <rdf:li>children</rdf:li>
            <rdf:li>gift</rdf:li>
            <rdf:li>kids</rdf:li>
            <rdf:li>mohair</rdf:li>
            <rdf:li>stuffed animal</rdf:li>
            <rdf:li>stuffed toy</rdf:li>
            <rdf:li>teddy bear</rdf:li>
            <rdf:li>valentines day 2011</rdf:li>
          </rdf:Bag>
        </dc:subject>
      </cc:Work>
      <cc:License
         rdf:about="http://creativecommons.org/publicdomain/zero/1.0/">
        <cc:permits
           rdf:resource="http://creativecommons.org/ns#Reproduction" />
        <cc:permits
           rdf:resource="http://creativecommons.org/ns#Distribution" />
        <cc:permits
           rdf:resource="http://creativecommons.org/ns#DerivativeWorks" />
      </cc:License>
    </rdf:RDF>
  </metadata>
  <style
     type="text/css"
     id="style26">.specularity {opacity:0.5;}
	.low-specularity {opacity:0.25;}
	.full-specularity {opacity:1;}
	.black {fill:#000000;}
	.white {fill:#ffffff;}
	.outline-big {stroke-width:16;stroke:none;opacity:0.1;fill:none;}
	.outline-small {stroke-width:8;stroke:none;opacity:0.2;fill:none;}
	.stroke-highlight {fill:none;stroke:none;opacity:0.2;}
       	.base-shadow 	{fill:black;opacity:75;}</style>
</svg>
